<svg width="32" height="32" viewBox="0 0 32 32" fill="none" xmlns="http://www.w3.org/2000/svg">
<path fill-rule="evenodd" clip-rule="evenodd" d="M9.51629 0.896755C8.90699 0.335468 7.95804 0.374391 7.39675 0.983692C6.83547 1.59299 6.87439 2.54194 7.48369 3.10323C7.49433 3.11303 7.5152 3.13392 7.56216 3.19127C7.58557 3.21986 7.60916 3.24963 7.64275 3.292L7.64933 3.30031C7.68366 3.34364 7.72732 3.39864 7.77525 3.45659C8.1405 3.8982 8.56196 4.2388 8.89979 4.49811C9.013 4.585 9.1137 4.66075 9.20561 4.72989L9.20562 4.72991C9.42289 4.89334 9.59103 5.01983 9.75931 5.16931C10.2133 5.5726 10.6769 5.94244 11.1363 6.29219C11.3421 6.44888 11.5778 6.63762 11.83 6.83957L11.8301 6.83966C12.3179 7.23028 12.8673 7.6703 13.3817 8.02333C13.7113 8.24959 13.9639 8.44608 14.2459 8.66543L14.2459 8.66544C14.4714 8.84086 14.7158 9.0309 15.0333 9.26247C15.3183 9.47032 15.6061 9.66736 15.873 9.85009L15.873 9.85012L15.8904 9.86199C16.1684 10.0523 16.4245 10.228 16.6722 10.4092C16.9223 10.5922 17.1003 10.7461 17.3137 10.9306L17.3137 10.9306C17.478 11.0727 17.6633 11.2329 17.9186 11.4384C18.0304 11.5285 18.1617 11.6389 18.306 11.7602L18.306 11.7603L18.306 11.7603C18.677 12.0723 19.1339 12.4564 19.5657 12.7516C19.9525 13.016 20.3293 13.31 20.7498 13.639L20.7689 13.654C21.1716 13.969 21.6166 14.3172 22.088 14.6397C22.4457 14.8846 22.801 15.1463 23.1752 15.4244L23.3183 15.5309C23.6013 15.7415 23.8967 15.9614 24.197 16.1766C24.1585 16.2057 24.1175 16.2365 24.0746 16.2688L24.0746 16.2688C23.8275 16.4545 23.516 16.6887 23.2483 16.9264C22.8701 17.2624 22.4704 17.5825 22.0465 17.9052C21.7051 18.1651 21.4151 18.3987 21.1436 18.6174C20.7319 18.9491 20.3626 19.2466 19.9206 19.5499C19.5708 19.79 19.1484 20.1148 18.7789 20.3989L18.7788 20.3989L18.7788 20.399C18.5576 20.5691 18.3553 20.7246 18.199 20.8386C17.9503 21.0199 17.6939 21.1955 17.4155 21.3861L17.4153 21.3862L17.4148 21.3866C17.1423 21.5732 16.848 21.7747 16.5565 21.9879C16.2461 22.215 15.8717 22.5339 15.5718 22.7894L15.5718 22.7894C15.4244 22.915 15.295 23.0253 15.2 23.1017C14.9757 23.2823 14.7862 23.4423 14.6131 23.5885L14.613 23.5885C14.3048 23.8486 14.0487 24.0648 13.7414 24.2749C13.2672 24.5991 12.8199 24.949 12.4155 25.2653L12.4017 25.2762C11.9809 25.6054 11.6043 25.8995 11.2177 26.164C10.8071 26.4451 10.4105 26.7376 10.035 27.0168L9.88842 27.1258L9.88828 27.1259C9.56074 27.3697 9.24988 27.601 8.9345 27.8243C8.75282 27.953 8.58196 28.0889 8.44728 28.1961L8.44719 28.1962L8.41971 28.218C8.26893 28.3379 8.15817 28.4247 8.05055 28.499C8.006 28.5298 7.96729 28.5589 7.9363 28.5829C7.92308 28.5931 7.9105 28.6031 7.89888 28.6123C7.88501 28.6234 7.87251 28.6335 7.86191 28.6422C7.22074 28.9426 6.86391 29.6659 7.04794 30.3762C7.25571 31.1782 8.07425 31.6598 8.8762 31.452C9.25432 31.3541 9.51938 31.1554 9.62596 31.0732C9.67283 31.0371 9.72437 30.9947 9.74694 30.9761L9.75588 30.9687L9.76904 30.9581C9.96579 30.8214 10.1457 30.6784 10.2868 30.5662L10.2916 30.5624C10.4455 30.44 10.5568 30.3516 10.6683 30.2726C11.0148 30.0272 11.3565 29.7729 11.6817 29.5309L11.6817 29.5309L11.8248 29.4244C12.199 29.1463 12.5543 28.8846 12.912 28.6397C13.3833 28.3172 13.8284 27.969 14.231 27.654L14.2311 27.654L14.2502 27.639C14.6707 27.31 15.0475 27.016 15.4343 26.7516C15.8661 26.4564 16.323 26.0723 16.6939 25.7603L16.694 25.7603L16.6941 25.7602C16.8384 25.6388 16.9696 25.5284 17.0814 25.4384C17.3367 25.2329 17.5219 25.0727 17.6862 24.9307L17.6863 24.9306C17.8996 24.7461 18.0777 24.5922 18.3277 24.4092C18.5755 24.228 18.8316 24.0523 19.1096 23.862L19.1269 23.8501L19.1272 23.85C19.394 23.6673 19.6817 23.4703 19.9667 23.2625C20.2842 23.0309 20.5285 22.8409 20.754 22.6655L20.7541 22.6654C21.0361 22.4461 21.2887 22.2496 21.6183 22.0233C22.1326 21.6703 22.6821 21.2303 23.1699 20.8397C23.4221 20.6377 23.6578 20.4489 23.8637 20.2922C24.3231 19.9424 24.7867 19.5726 25.2407 19.1693C25.409 19.0198 25.5771 18.8933 25.7944 18.7299L25.7944 18.7298C25.8863 18.6607 25.987 18.585 26.1002 18.4981C26.438 18.2388 26.8595 17.8982 27.2247 17.4566C27.2727 17.3986 27.3163 17.3436 27.3507 17.3003L27.3572 17.292L27.3575 17.2917C27.3909 17.2495 27.4145 17.2198 27.4378 17.1913C27.4768 17.1437 27.4978 17.1212 27.5099 17.1093C27.6171 17.0119 27.7108 16.8984 27.7869 16.7713C28.1008 16.2482 28.07 15.5704 27.6807 15.0747C27.5691 14.9321 27.4313 14.809 27.2721 14.7135C27.2283 14.6872 27.1835 14.6633 27.1377 14.6419C27.1182 14.626 27.0925 14.6052 27.0637 14.5829C27.0327 14.5589 26.994 14.5298 26.9494 14.499C26.8418 14.4247 26.7311 14.3379 26.5803 14.218L26.5528 14.1962L26.5527 14.1961C26.418 14.089 26.2472 13.953 26.0655 13.8243C25.7501 13.601 25.4392 13.3696 25.1116 13.1259L25.1116 13.1258L24.965 13.0168C24.5895 12.7376 24.1929 12.4451 23.7823 12.164C23.3957 11.8995 23.0191 11.6054 22.5983 11.2762L22.5845 11.2653C22.1801 10.949 21.7328 10.5991 21.2586 10.2749C20.9512 10.0648 20.6951 9.84863 20.3869 9.58845C20.2138 9.44232 20.0243 9.28232 19.8 9.10173C19.705 9.02528 19.5756 8.91502 19.4282 8.78943C19.1283 8.53395 18.7539 8.21499 18.4435 7.98793C18.152 7.77465 17.8577 7.57319 17.5852 7.38661L17.5847 7.38624L17.5845 7.38614C17.3061 7.19547 17.0497 7.01994 16.801 6.83858C16.6447 6.72455 16.4424 6.56904 16.2212 6.39894L16.2211 6.39891C15.8516 6.11481 15.4292 5.79002 15.0794 5.54994C14.6374 5.24657 14.2681 4.94907 13.8564 4.61743L13.8564 4.61737C13.5848 4.39866 13.2949 4.16509 12.9535 3.9052C12.5296 3.58245 12.1299 3.2624 11.7517 2.92642C11.484 2.68866 11.1724 2.45449 10.9254 2.2688L10.9249 2.26846C10.8523 2.21383 10.7852 2.1634 10.7264 2.11832C10.425 1.88694 10.2273 1.71419 10.087 1.54458C10.0794 1.53544 10.0669 1.51942 10.0501 1.49795L10.0498 1.49766C9.9582 1.38081 9.74085 1.10362 9.51629 0.896755Z" fill="white"/>
</svg>
