<svg width="32" height="32" viewBox="0 0 32 32" fill="none" xmlns="http://www.w3.org/2000/svg">
<path fill-rule="evenodd" clip-rule="evenodd" d="M22.4837 0.896755C23.093 0.335468 24.042 0.374391 24.6032 0.983692C25.1645 1.59299 25.1256 2.54194 24.5163 3.10323C24.5057 3.11303 24.4848 3.13392 24.4378 3.19127C24.4144 3.21986 24.3908 3.24963 24.3573 3.292L24.3507 3.30031C24.3163 3.34364 24.2727 3.39864 24.2247 3.45659C23.8595 3.8982 23.438 4.2388 23.1002 4.49811C22.987 4.585 22.8863 4.66075 22.7944 4.72989L22.7944 4.72991C22.5771 4.89334 22.409 5.01983 22.2407 5.16931C21.7867 5.5726 21.3231 5.94244 20.8637 6.29219C20.6579 6.44888 20.4222 6.63762 20.17 6.83957L20.1699 6.83966C19.6821 7.23028 19.1327 7.6703 18.6183 8.02333C18.2887 8.24959 18.0361 8.44608 17.7541 8.66543L17.7541 8.66544C17.5286 8.84086 17.2842 9.0309 16.9667 9.26247C16.6817 9.47032 16.3939 9.66736 16.127 9.85009L16.127 9.85012L16.1096 9.86199C15.8316 10.0523 15.5755 10.228 15.3278 10.4092C15.0777 10.5922 14.8997 10.7461 14.6863 10.9306L14.6863 10.9306C14.522 11.0727 14.3367 11.2329 14.0814 11.4384C13.9696 11.5285 13.8383 11.6389 13.694 11.7602L13.694 11.7603L13.694 11.7603C13.323 12.0723 12.8661 12.4564 12.4343 12.7516C12.0475 13.016 11.6707 13.31 11.2502 13.639L11.2311 13.654C10.8284 13.969 10.3834 14.3172 9.91205 14.6397C9.55427 14.8846 9.19899 15.1463 8.82482 15.4244L8.68168 15.5309C8.39871 15.7415 8.10326 15.9614 7.803 16.1766C7.84147 16.2057 7.88246 16.2365 7.9254 16.2688L7.92542 16.2688C8.17247 16.4545 8.48402 16.6887 8.75167 16.9264C9.1299 17.2624 9.52959 17.5825 9.95352 17.9052C10.2949 18.1651 10.5849 18.3987 10.8564 18.6174C11.2681 18.9491 11.6374 19.2466 12.0794 19.5499C12.4292 19.79 12.8516 20.1148 13.2211 20.3989L13.2212 20.3989L13.2212 20.399C13.4424 20.5691 13.6447 20.7246 13.801 20.8386C14.0497 21.0199 14.3061 21.1955 14.5845 21.3861L14.5847 21.3862L14.5852 21.3866C14.8577 21.5732 15.152 21.7747 15.4435 21.9879C15.7539 22.215 16.1283 22.5339 16.4282 22.7894L16.4282 22.7894C16.5756 22.915 16.705 23.0253 16.8 23.1017C17.0243 23.2823 17.2138 23.4423 17.3869 23.5885L17.387 23.5885C17.6952 23.8486 17.9513 24.0648 18.2586 24.2749C18.7328 24.5991 19.1801 24.949 19.5845 25.2653L19.5983 25.2762C20.0191 25.6054 20.3957 25.8995 20.7823 26.164C21.1929 26.4451 21.5895 26.7376 21.965 27.0168L22.1116 27.1258L22.1117 27.1259C22.4393 27.3697 22.7501 27.601 23.0655 27.8243C23.2472 27.953 23.418 28.0889 23.5527 28.1961L23.5528 28.1962L23.5803 28.218C23.7311 28.3379 23.8418 28.4247 23.9495 28.499C23.994 28.5298 24.0327 28.5589 24.0637 28.5829C24.0769 28.5931 24.0895 28.6031 24.1011 28.6123C24.115 28.6234 24.1275 28.6335 24.1381 28.6422C24.7793 28.9426 25.1361 29.6659 24.9521 30.3762C24.7443 31.1782 23.9257 31.6598 23.1238 31.452C22.7457 31.3541 22.4806 31.1554 22.374 31.0732C22.3272 31.0371 22.2756 30.9947 22.2531 30.9761L22.2441 30.9687L22.231 30.9581C22.0342 30.8214 21.8543 30.6784 21.7132 30.5662L21.7084 30.5624C21.5545 30.44 21.4432 30.3516 21.3317 30.2726C20.9852 30.0272 20.6435 29.7729 20.3183 29.5309L20.3183 29.5309L20.1752 29.4244C19.801 29.1463 19.4457 28.8846 19.088 28.6397C18.6167 28.3172 18.1716 27.969 17.769 27.654L17.7689 27.654L17.7498 27.639C17.3293 27.31 16.9525 27.016 16.5657 26.7516C16.1339 26.4564 15.677 26.0723 15.3061 25.7603L15.306 25.7603L15.3059 25.7602C15.1616 25.6388 15.0304 25.5284 14.9186 25.4384C14.6633 25.2329 14.4781 25.0727 14.3138 24.9307L14.3137 24.9306C14.1004 24.7461 13.9223 24.5922 13.6723 24.4092C13.4245 24.228 13.1684 24.0523 12.8904 23.862L12.8731 23.8501L12.8728 23.85C12.606 23.6673 12.3183 23.4703 12.0333 23.2625C11.7158 23.0309 11.4715 22.8409 11.246 22.6655L11.2459 22.6654C10.9639 22.4461 10.7113 22.2496 10.3817 22.0233C9.86736 21.6703 9.31789 21.2303 8.83011 20.8397C8.57789 20.6377 8.34216 20.4489 8.13631 20.2922C7.67689 19.9424 7.21332 19.5726 6.75932 19.1693C6.59104 19.0198 6.42289 18.8933 6.20562 18.7299L6.20556 18.7298C6.11367 18.6607 6.01299 18.585 5.89981 18.4981C5.56197 18.2388 5.14052 17.8982 4.77527 17.4566C4.72734 17.3986 4.68368 17.3436 4.64934 17.3003L4.64276 17.292L4.64253 17.2917C4.60907 17.2495 4.58553 17.2198 4.56217 17.1913C4.5232 17.1437 4.50219 17.1212 4.4901 17.1093C4.3829 17.0119 4.28918 16.8984 4.21307 16.7713C3.89922 16.2482 3.93001 15.5704 4.31927 15.0747C4.43085 14.9321 4.56866 14.809 4.72786 14.7135C4.77166 14.6872 4.81655 14.6633 4.86233 14.6419C4.88176 14.626 4.90751 14.6052 4.93631 14.5829C4.9673 14.5589 5.00602 14.5298 5.05056 14.499C5.15819 14.4247 5.26895 14.3379 5.41972 14.218L5.44721 14.1962L5.44727 14.1961C5.58195 14.089 5.75282 13.953 5.93451 13.8243C6.24992 13.601 6.56081 13.3696 6.88838 13.1259L6.88844 13.1258L7.03504 13.0168C7.41055 12.7376 7.80707 12.4451 8.21771 12.164C8.60427 11.8995 8.98087 11.6054 9.4017 11.2762L9.41555 11.2653C9.81995 10.949 10.2672 10.5991 10.7414 10.2749C11.0488 10.0648 11.3049 9.84863 11.6131 9.58845C11.7862 9.44232 11.9757 9.28232 12.2 9.10173C12.295 9.02528 12.4244 8.91502 12.5718 8.78943C12.8717 8.53395 13.2461 8.21499 13.5565 7.98793C13.848 7.77465 14.1423 7.57319 14.4148 7.38661L14.4153 7.38624L14.4155 7.38614C14.6939 7.19547 14.9503 7.01994 15.199 6.83858C15.3553 6.72455 15.5576 6.56904 15.7788 6.39894L15.7789 6.39891C16.1484 6.11481 16.5708 5.79002 16.9206 5.54994C17.3626 5.24657 17.7319 4.94907 18.1436 4.61743L18.1436 4.61737C18.4152 4.39866 18.7051 4.16509 19.0465 3.9052C19.4704 3.58245 19.8701 3.2624 20.2483 2.92642C20.516 2.68866 20.8276 2.45449 21.0746 2.2688L21.0751 2.26846C21.1477 2.21383 21.2148 2.1634 21.2736 2.11832C21.575 1.88694 21.7727 1.71419 21.913 1.54458C21.9206 1.53544 21.9331 1.51942 21.9499 1.49795L21.9502 1.49766C22.0418 1.38081 22.2591 1.10362 22.4837 0.896755Z" fill="white"/>
</svg>
