<svg width="32" height="32" viewBox="0 0 32 32" fill="none" xmlns="http://www.w3.org/2000/svg">
<path fill-rule="evenodd" clip-rule="evenodd" d="M22.7961 24.7407C23.5378 25.551 24.2794 26.3614 25.0254 27.1677L25.0267 27.1691C24.9993 27.2171 24.9715 27.2648 24.9437 27.3126C24.9159 27.3603 24.8881 27.4081 24.8607 27.4562C25.0014 27.4666 25.1521 27.4973 25.3031 27.5281C25.6411 27.5971 25.98 27.6663 26.2093 27.5073C26.785 27.1071 26.6455 26.6569 26.5166 26.2407C26.4899 26.1547 26.4638 26.0702 26.4444 25.9879C26.4167 25.8719 26.3382 25.782 26.2635 25.6964C26.2596 25.6919 26.2556 25.6874 26.2517 25.6829C25.8615 25.24 25.4735 24.7951 25.0856 24.3503C24.1327 23.2577 23.1801 22.1655 22.1955 21.1038C20.6192 19.4073 19.0353 17.7136 17.3858 16.0899C17.8972 15.5952 18.4106 15.1025 18.9239 14.6098C19.0521 14.4868 19.1804 14.3637 19.3086 14.2406C20.9498 12.6654 22.6309 11.1313 24.3122 9.59702C25.0974 8.88042 25.8827 8.16379 26.664 7.44289L26.6654 7.44156C26.7131 7.46935 26.7606 7.49747 26.808 7.5256C26.8554 7.55371 26.9028 7.58182 26.9505 7.60959C26.9585 7.47131 26.9863 7.32349 27.0142 7.17548C27.0766 6.84403 27.1392 6.51167 26.9791 6.28351C26.576 5.71062 26.1354 5.84059 25.7279 5.96077C25.6438 5.98558 25.5611 6.00998 25.4804 6.02769C25.3667 6.05305 25.2795 6.12886 25.1965 6.20097C25.1921 6.20479 25.1877 6.20859 25.1834 6.21238C24.7539 6.58915 24.3225 6.9637 23.8911 7.3382C22.8315 8.25809 21.7722 9.17772 20.7436 10.1293C19.1245 11.6301 17.5081 13.1381 15.9586 14.7091C14.44 13.2567 12.8989 11.8278 11.3579 10.399C10.803 9.88441 10.248 9.36986 9.69418 8.85423C9.23225 8.4236 8.71629 8.05074 8.20021 7.6778C7.24701 6.98898 6.29342 6.29987 5.6792 5.24593C5.40671 4.77591 4.73655 5.01981 4.31986 5.63725C3.82366 6.37271 3.90762 6.98728 4.55191 7.46503C5.04934 7.83144 5.54303 8.20258 6.03695 8.5739C6.36069 8.81729 6.68453 9.06075 7.00959 9.30299C9.75579 11.3484 12.2275 13.6796 14.6172 16.0949C13.1905 17.5874 11.7883 19.1035 10.3862 20.6194C9.88888 21.1571 9.39159 21.6948 8.89323 22.2314C8.47699 22.6789 8.11847 23.1806 7.75986 23.6823C7.09753 24.609 6.43492 25.5361 5.40788 26.1234C4.94983 26.384 5.20061 27.0472 5.81482 27.4672C6.54641 27.9672 7.14972 27.8945 7.60937 27.2683C7.96183 26.7849 8.31902 26.3051 8.67637 25.8252C8.91062 25.5106 9.14494 25.1959 9.37805 24.8799C11.3545 22.1996 13.6191 19.7964 15.9676 17.4751C16.5167 18.0415 17.0634 18.6103 17.61 19.1791C17.7372 19.3115 17.8645 19.444 17.9917 19.5763C19.6205 21.2712 21.2082 23.0058 22.7961 24.7407Z" fill="white"/>
</svg>
