<svg width="32" height="32" viewBox="0 0 32 32" fill="none" xmlns="http://www.w3.org/2000/svg">
<path d="M30.8649 8.43389C27.3059 8.29969 23.7489 8.10798 20.1899 8.03951C15.0149 7.94092 9.83601 7.80946 4.67514 8.5407C3.62932 8.68859 2.58349 8.82554 1.53968 8.97891C0.72068 9.09667 0.210818 8.72147 0.0361793 7.85056C-0.110356 7.11932 0.200773 6.47298 0.742755 6.61265C2.61962 7.09193 4.45233 6.38808 6.30711 6.32509C9.78583 6.20459 13.2645 6.05395 16.7453 6.00739C19.2866 5.97452 21.8319 6.05669 24.3732 6.14707C26.4749 6.22375 28.5745 6.38807 30.6762 6.51679C30.7987 6.525 30.9291 6.53049 31.0396 6.59622C31.4731 6.8564 32.1315 7.00428 31.977 7.83685C31.9027 8.23396 31.3125 8.45581 30.9552 8.75433C30.9251 8.64752 30.897 8.5407 30.8669 8.43389H30.8649Z" fill="white"/>
<path d="M1.09852 26.4339C4.54272 26.2997 7.98499 26.108 11.4292 26.0395C16.4372 25.9409 21.4491 25.8095 26.4434 26.5407C27.4555 26.6886 28.4676 26.8255 29.4778 26.9789C30.2703 27.0967 30.7638 26.7215 30.9328 25.8506C31.0746 25.1193 30.7735 24.473 30.249 24.6127C28.4327 25.0919 26.6591 24.3881 24.8641 24.3251C21.4976 24.2046 18.1311 24.0539 14.7627 24.0074C12.3034 23.9745 9.84015 24.0567 7.38084 24.1471C5.34695 24.2238 3.31501 24.3881 1.28112 24.5168C1.16262 24.525 1.03634 24.5305 0.929499 24.5962C0.5099 24.8564 -0.127265 25.0043 0.0223143 25.8368C0.0941901 26.234 0.665316 26.4558 1.0111 26.7543C1.04024 26.6475 1.06743 26.5407 1.09657 26.4339H1.09852Z" fill="white"/>
<path d="M2.30111 18.0615C5.57385 17.8199 8.8427 17.5268 12.1178 17.3441C16.8798 17.0793 21.6445 16.7849 26.4229 17.2639C27.3913 17.3606 28.3592 17.4476 29.3259 17.5494C30.0842 17.627 30.5405 17.2735 30.6705 16.4874C30.7796 15.8275 30.4703 15.2591 29.9761 15.4027C28.2646 15.896 26.552 15.3281 24.8417 15.3349C21.6339 15.3456 18.4251 15.3294 15.218 15.4064C12.8766 15.4636 10.5355 15.624 8.19848 15.7917C6.26575 15.9321 4.33799 16.1509 2.4071 16.3378C2.29463 16.3494 2.17466 16.3587 2.07531 16.4214C1.68522 16.6692 1.08413 16.8241 1.2559 17.5646C1.33834 17.9178 1.88966 18.0964 2.22925 18.3516C2.2532 18.2549 2.27531 18.1582 2.29926 18.0615L2.30111 18.0615Z" fill="white"/>
</svg>
