<svg width="56" height="56" viewBox="0 0 56 56" fill="none" xmlns="http://www.w3.org/2000/svg">
<path d="M27.6889 20.8315C27.6889 16.905 23.7619 14.9498 20.3504 14.3151C15.8227 13.4728 10.4704 16.1618 9.20547 20.6793C7.86379 25.471 13.4023 30.2658 16.8369 32.3266C19.8009 34.105 22.0888 35.8822 24.3369 38.3101C25.6063 39.6811 26.2711 40.8846 27.4149 42.3144C28.8369 40.9602 32.6219 38.3101 32.6219 38.3101C35.5074 36.4813 40.2534 32.7067 42.8369 30.4602C46.8125 27.0032 47.2818 22.9674 45.5025 17.8169C44.8923 16.0505 43.2056 13.4052 41.1176 13.1732C39.2753 12.9685 36.2846 12.7304 34.6773 13.8431C32.9487 15.0399 31.8988 16.7319 30.4295 18.2432C29.6296 19.066 28.0494 20.0241 27.6889 21.1056" stroke="#785489" stroke-width="3" stroke-linecap="round"/>
</svg>
