<svg width="56" height="56" viewBox="0 0 56 56" fill="none" xmlns="http://www.w3.org/2000/svg">
<g clip-path="url(#clip0_2041_8455)">
<path d="M16.1559 44.0942C16.4122 44.1256 16.6704 44.1393 16.9287 44.1352C17.401 44.1371 17.8734 44.1378 18.3457 44.1376H19.1817H20.0183C20.0562 44.1376 20.0932 44.126 20.1244 44.1044C20.1557 44.0826 20.1798 44.0519 20.1934 44.016C20.2838 44.0109 20.3745 44.0127 20.4647 44.0214C21.396 44.1323 22.0549 43.8282 22.4805 43.0904C22.5864 42.9331 22.7158 42.7933 22.864 42.6763C22.9466 42.6024 23.0284 42.5296 23.1045 42.452C23.4031 42.144 23.7071 41.8405 24.0106 41.5372C24.6766 40.8718 25.3653 40.1842 25.99 39.4567C30.2648 34.478 35.0627 29.1687 40.6575 23.2254C41.4788 22.3529 42.3006 21.4809 43.1227 20.6092C44.8164 18.8134 46.5676 16.9561 48.283 15.1226C48.7395 14.6353 48.9607 14.0951 48.9245 13.5604C48.888 13.019 48.5896 12.5059 48.0615 12.0765C47.6114 11.7109 47.1561 11.3516 46.7011 10.9923C46.3925 10.7487 46.0842 10.5044 45.7767 10.2595C45.5105 10.0468 45.2459 9.8322 44.9827 9.61582C44.5006 9.2225 44.0023 8.81588 43.4981 8.4329C42.7902 7.89448 42.366 7.90869 41.6834 8.49333C41.5921 8.57151 41.5102 8.65655 41.4312 8.73899C41.4001 8.77115 41.3689 8.80367 41.3375 8.83547L39.1626 11.0246C37.6506 12.5471 36.1377 14.0689 34.6241 15.59C28.2804 21.9736 22.343 28.7574 16.8471 35.9011C16.3686 36.5188 16.0313 37.2361 15.8597 38.0015C15.6327 38.9847 15.3617 39.9765 15.0999 40.9358C15.0015 41.296 14.9038 41.6564 14.8068 42.0165C14.7315 42.2466 14.7063 42.4904 14.733 42.7311C14.7597 42.9719 14.8376 43.2041 14.9614 43.4114C15.0999 43.6059 15.2784 43.7676 15.4847 43.8855C15.6909 44.0035 15.9199 44.0746 16.1559 44.0942ZM20.2463 41.9049L18.6467 42.1363L17.3335 40.4484L17.6472 38.637L20.2463 41.9049ZM38.1124 15.1779L41.3894 19.2331L21.4667 41.0066L18.3786 37.0738C24.5353 29.3975 31.1242 22.087 38.1128 15.1788L38.1124 15.1779ZM39.381 13.8471L42.8349 10.5413L46.4368 13.9709C45.8415 14.7042 45.205 15.4021 44.5302 16.061C43.9665 16.634 43.3855 17.2242 42.8331 17.8753L39.381 13.8471Z" fill="#3A6C57"/>
<path d="M7.14629 38.2931C7.21889 38.5127 7.31108 38.725 7.42167 38.9276C8.15996 40.1865 8.36244 41.2541 8.07903 42.389C7.99465 42.7945 7.95835 43.2089 7.97092 43.6231C7.96964 43.759 7.96854 43.8947 7.96361 44.0298C7.93935 44.3464 7.99336 44.6641 8.12072 44.9543C8.24808 45.2447 8.4448 45.4981 8.69315 45.6922C9.23328 46.1374 9.83399 46.5016 10.4767 46.7733C10.7659 46.8825 11.072 46.9389 11.3806 46.9396C12.1125 46.9163 12.8121 46.6287 13.3528 46.1288C13.6934 45.8388 14.0346 45.4107 13.6449 44.666C13.6226 44.6233 13.585 44.5908 13.5398 44.575C13.4946 44.5595 13.4452 44.5619 13.4017 44.5819C13.2779 44.6386 13.1579 44.6948 13.0405 44.7499C12.7874 44.8686 12.5475 44.9806 12.3055 45.0809C11.6048 45.3698 10.9418 45.2499 10.2179 44.7041C9.7218 44.3296 9.75248 43.8777 9.86241 43.1781L9.86789 43.1428C10.0237 42.3082 10.1065 41.4615 10.1153 40.6122C10.0861 39.1162 8.78226 37.8105 7.20763 37.7012C7.17595 37.6994 7.14432 37.7057 7.11561 37.7194C7.08691 37.733 7.06207 37.7537 7.0433 37.7796C7.02463 37.8059 7.01284 37.8364 7.00911 37.8683C7.00537 37.9005 7.00977 37.933 7.0219 37.9628C7.06755 38.077 7.10794 38.1874 7.14629 38.2931Z" fill="#3A6C57"/>
</g>
<defs>
<clipPath id="clip0_2041_8455">
<rect width="42" height="39" fill="white" transform="translate(7 8)"/>
</clipPath>
</defs>
</svg>
