<svg width="56" height="56" viewBox="0 0 56 56" fill="none" xmlns="http://www.w3.org/2000/svg">
<path fill-rule="evenodd" clip-rule="evenodd" d="M15.6112 14.2628C14.8581 14.3897 14.3312 15.0572 14.3613 15.8008C14.3421 15.8237 14.3218 15.8475 14.3006 15.8723C14.2573 15.9228 14.1968 15.9919 14.1303 16.068L14.1302 16.068C14.0189 16.1953 13.8906 16.342 13.7978 16.4529C13.6323 16.6506 13.4162 16.9221 13.2531 17.2233C13.1354 17.4407 13.0262 17.6474 12.9214 17.8456L12.9213 17.8457C12.5276 18.5906 12.1973 19.2155 11.7203 19.8373C11.0649 20.6918 10.4641 21.5376 9.88154 22.3577L9.88154 22.3577L9.88153 22.3577L9.68188 22.6387C9.03119 23.5537 8.39258 24.4421 7.68077 25.337C5.39669 28.2084 2.98139 31.5092 1.26562 34.8645C1.24346 34.9079 1.22361 34.9518 1.20603 34.9961C1.07509 35.2188 1 35.4783 1 35.7553C1 36.5837 1.67157 37.2553 2.5 37.2553C2.77348 37.2553 3.00224 37.1999 3.15928 37.1512C3.30006 37.1076 3.42861 37.054 3.4927 37.0272L3.49272 37.0272L3.50421 37.0224L3.53424 37.01C3.77247 36.9845 3.95792 36.9139 4.06737 36.8656C4.1152 36.8445 4.16065 36.8219 4.20008 36.8011C4.23175 36.7955 4.26219 36.7895 4.29082 36.7835L4.29876 36.7819C4.36921 36.7674 4.66711 36.7063 4.94107 36.54L4.94148 36.5398C4.9508 36.5364 5.00633 36.5159 5.1548 36.4933C5.23869 36.4805 5.3212 36.4709 5.43247 36.458L5.51307 36.4486C5.65151 36.4323 5.83286 36.4101 6.02008 36.3741C6.4856 36.2846 6.93141 36.2929 7.52977 36.304C7.75331 36.3081 7.99814 36.3127 8.27324 36.3127C8.85926 36.3127 9.38798 36.351 9.94684 36.4432C10.1491 36.4766 10.26 36.5163 10.4672 36.5906L10.4673 36.5906C10.5935 36.6358 10.7554 36.6938 10.9954 36.7709C11.2201 36.8432 11.4386 36.905 11.6331 36.9593L11.7122 36.9814C11.8808 37.0284 12.0285 37.0695 12.1752 37.1142C12.5071 37.2152 12.7586 37.3125 12.9786 37.4389C13.5089 37.7435 14.0546 37.9436 14.4882 38.099L14.605 38.1408L14.605 38.1408C15.0149 38.2874 15.3206 38.3967 15.6077 38.5402C15.9853 38.729 16.3548 38.9544 16.7623 39.2148C16.8551 39.2741 16.9519 39.3366 17.0517 39.401L17.0524 39.4014L17.0524 39.4014C17.37 39.6064 17.7184 39.8313 18.0682 40.038C18.2729 40.159 18.475 40.2929 18.7168 40.4531L18.7168 40.4531L18.7534 40.4774C18.9991 40.6401 19.286 40.8295 19.5926 41.0046C19.5915 41.004 19.5916 41.004 19.593 41.0049C19.5955 41.0064 19.602 41.0104 19.6137 41.0178C19.6319 41.0295 19.6539 41.0439 19.6855 41.0648L19.7031 41.0764C19.7594 41.1137 19.8426 41.1688 19.9285 41.2215C20.0241 41.2802 20.1554 41.3563 20.3061 41.424C20.4487 41.488 20.6743 41.5748 20.9501 41.6055C21.5723 41.6746 22.1477 41.3528 22.4313 40.8361C22.768 40.7527 23.106 40.6585 23.4253 40.5658C23.7866 40.4608 24.1478 40.3504 24.4809 40.2486L24.4811 40.2485L24.4992 40.243C24.8425 40.138 25.151 40.0439 25.4208 39.9668C26.339 39.7044 27.3866 39.6281 28.5859 39.6947C28.8347 39.7085 29.4867 39.8144 30.2098 39.9795C30.5554 40.0584 30.8841 40.1434 31.1522 40.2246C31.2862 40.2652 31.3952 40.3019 31.478 40.3331C31.5539 40.3617 31.585 40.3772 31.5851 40.377L31.5818 40.3752C32.2728 40.7591 33.0094 40.9474 33.5485 41.0853L33.5831 41.0941C34.1889 41.2492 34.575 41.3527 34.9028 41.5263L34.9328 41.5421C35.2212 41.6949 35.5466 41.8672 35.8526 41.9897C36.1798 42.1208 36.6294 42.2571 37.1521 42.2095C38.2374 42.1105 38.9319 41.2914 39.4087 40.6784C39.708 40.2936 40.0441 39.8823 40.3949 39.453L40.3954 39.4524L40.3963 39.4513L40.3969 39.4506C41.0543 38.6461 41.7634 37.7784 42.3797 36.9025C42.8177 36.2802 43.2654 35.7059 43.7344 35.1042C43.9485 34.8297 44.167 34.5494 44.391 34.2563C45.0824 33.3516 45.7856 32.3741 46.3703 31.2698C46.7774 30.5008 47.4013 30.0054 48.3199 29.276C48.5186 29.1181 48.7312 28.9493 48.9584 28.7644C49.4452 28.3682 49.7312 27.9326 49.9065 27.6658L49.9222 27.6418C50.1072 27.3605 50.1618 27.2931 50.2393 27.2312C50.9197 26.6868 51.3896 25.9633 51.717 25.4476L51.8298 25.2694C52.1435 24.7738 52.3302 24.479 52.5399 24.2692C52.5749 24.2342 52.6125 24.2009 52.6736 24.1469L52.6737 24.1468L52.6738 24.1467L52.674 24.1466C52.7372 24.0906 52.8257 24.0124 52.9623 23.887C53.1692 23.6972 53.4496 23.4294 53.687 23.1336C53.8067 22.9845 53.9426 22.7953 54.0544 22.5758C54.1612 22.3664 54.2921 22.0409 54.2983 21.6418C54.3053 21.1928 54.1504 20.7293 53.8014 20.359C53.4881 20.0267 53.1096 19.8658 52.816 19.782C52.6776 19.7424 52.5027 19.6894 52.3103 19.631L52.3103 19.631C51.9631 19.5257 51.5589 19.403 51.2092 19.3113C50.6175 19.1561 49.9199 19.0114 49.2059 19.0114C48.629 19.0114 48.0803 18.9398 47.4356 18.8518L47.377 18.8438C46.7717 18.7611 46.0655 18.6647 45.3143 18.6647C44.9544 18.6647 44.5581 18.6947 44.2008 18.724L43.9991 18.7407L43.999 18.7407C43.6957 18.766 43.407 18.7901 43.1181 18.8051C42.346 18.8453 41.9296 18.7913 41.7622 18.7169C41.1264 18.4343 40.3552 18.3584 39.6936 18.3466C38.9886 18.3339 38.2163 18.3932 37.4725 18.4927C36.6994 18.596 35.8851 18.7527 35.1557 18.9465C34.9694 18.7779 34.7382 18.6538 34.4754 18.5954C34.428 18.5849 34.3807 18.5768 34.3335 18.5709C34.2259 18.333 34.0549 18.12 33.8252 17.9598C31.7624 16.5206 29.1724 14.758 25.7977 14.4352L25.3334 14.3905C22.3055 14.0987 18.6671 13.748 15.6112 14.2628ZM20.2604 37.8771C20.3711 37.6445 20.4606 37.4117 20.5706 37.1257L20.5706 37.1256L20.5706 37.1255L20.5709 37.1249L20.5709 37.1248L20.571 37.1246C20.6328 36.9637 20.7012 36.7859 20.7835 36.5819C21.0026 36.0383 21.3013 35.3707 21.7862 34.7646C21.8951 34.6285 22.0195 34.4103 22.2146 34.0348L22.2679 33.9318C22.4293 33.6196 22.6435 33.2052 22.8911 32.845C23.076 32.5762 23.27 32.2826 23.4734 31.975C24.1081 31.0146 24.8333 29.9175 25.6498 29.0102C26.1065 28.5029 26.5223 27.8873 26.9807 27.1702C27.0534 27.0565 27.1277 26.9394 27.2036 26.8198C27.5837 26.2203 28.0031 25.559 28.4585 24.9572C28.703 24.6342 28.9433 24.3285 29.1756 24.0332L29.1757 24.033L29.1759 24.0328C29.6657 23.4099 30.1193 22.833 30.4992 22.236C30.5495 22.157 30.6001 22.0761 30.6517 21.9936L30.652 21.9932L30.652 21.993C30.9798 21.4691 31.3486 20.8794 31.9311 20.2966C29.9033 18.8881 27.9433 17.6541 25.5121 17.4215L25.2107 17.3927C22.4435 17.1273 19.5889 16.8536 17.1431 17.0867L17.1428 17.0872C16.9644 17.3644 16.7529 17.621 16.5785 17.8244C16.4815 17.9377 16.4064 18.0231 16.3385 18.1003L16.3383 18.1004C16.2567 18.1933 16.1854 18.2744 16.0985 18.3782C16.0335 18.4558 15.9839 18.5185 15.9463 18.57C15.9279 18.5951 15.9145 18.6148 15.9049 18.6295C15.9002 18.6368 15.8968 18.6423 15.8945 18.6462C15.8921 18.65 15.8912 18.6519 15.8912 18.6517C15.8057 18.8096 15.7177 18.9768 15.6261 19.1508L15.626 19.151C15.2221 19.9183 14.7473 20.8202 14.1007 21.6631C13.4808 22.4713 12.9123 23.2716 12.3258 24.0971L12.1268 24.3773C11.4742 25.295 10.795 26.241 10.0286 27.2046C8.46568 29.1693 6.89404 31.2735 5.5511 33.4102C6.33057 33.2745 7.17017 33.2923 7.80912 33.3058C7.9798 33.3094 8.13617 33.3127 8.27324 33.3127C9.00104 33.3127 9.69479 33.361 10.4354 33.4833C10.9164 33.5627 11.3911 33.7313 11.6998 33.8409L11.6998 33.8409L11.6998 33.8409C11.7847 33.871 11.857 33.8967 11.9134 33.9149C12.0783 33.9678 12.2483 34.0163 12.4401 34.0699L12.5143 34.0906L12.5145 34.0906C12.6804 34.1369 12.8655 34.1884 13.0487 34.2442C13.4775 34.3747 13.9721 34.5498 14.4729 34.8375C14.7476 34.9953 15.0653 35.119 15.5003 35.2749L15.6282 35.3205C16.0099 35.4564 16.4899 35.6272 16.9494 35.8569C17.4722 36.1184 17.949 36.4129 18.3778 36.6869C18.4958 36.7623 18.6084 36.835 18.7175 36.9054L18.7181 36.9058L18.7182 36.9058C19.0227 37.1023 19.3001 37.2813 19.5944 37.4552C19.83 37.5944 20.0574 37.7428 20.2604 37.8771ZM24.5966 37.0822C24.324 37.1601 24.0229 37.2516 23.7186 37.3446C23.852 37.0508 23.9811 36.8233 24.1288 36.6387C24.4499 36.2373 24.6998 35.7585 24.8766 35.4182L24.9188 35.337L24.9188 35.3369C25.1015 34.985 25.2281 34.7412 25.3633 34.5446C25.618 34.1742 25.855 33.8159 26.0837 33.4701L26.0837 33.4701L26.0837 33.4701L26.0837 33.47L26.0838 33.47L26.0838 33.4699C26.6834 32.5636 27.2259 31.7436 27.8797 31.0171C28.5157 30.3104 29.045 29.5109 29.5083 28.7862C29.5937 28.6526 29.6766 28.522 29.7577 28.3943C30.137 27.7969 30.4771 27.2613 30.8507 26.7675C31.0214 26.542 31.2174 26.2925 31.4253 26.0278L31.4255 26.0276C31.9573 25.3506 32.5671 24.5744 33.0302 23.8466C33.086 23.7589 33.1382 23.6763 33.1876 23.5982L33.1883 23.5971L33.192 23.5912L33.1934 23.589L33.1943 23.5876L33.1943 23.5876C33.5541 23.018 33.7625 22.6882 34.1161 22.355C34.3742 22.3728 34.6402 22.3239 34.8883 22.1999C35.3515 21.9682 36.535 21.6447 37.8699 21.4662C38.5114 21.3805 39.1267 21.3369 39.6397 21.3461C40.196 21.3561 40.473 21.4269 40.5438 21.4583C41.4381 21.8558 42.5215 21.8403 43.2742 21.8011C43.6144 21.7833 43.9593 21.7545 44.2638 21.7291L44.4458 21.714C44.8118 21.684 45.0934 21.6647 45.3143 21.6647C45.852 21.6647 46.3772 21.7352 47.0301 21.8243L47.0418 21.8259C47.6657 21.911 48.402 22.0114 49.2059 22.0114C49.524 22.0114 49.9085 22.0754 50.3734 22.1938C49.9274 22.6538 49.5612 23.2386 49.2929 23.6669C49.2547 23.728 49.2184 23.7859 49.1842 23.8398C48.8453 24.3737 48.609 24.6935 48.3652 24.8885C47.8911 25.2678 47.608 25.6999 47.4397 25.9567L47.4156 25.9935C47.2394 26.2614 47.17 26.3519 47.0646 26.4377C46.9199 26.5555 46.7616 26.6792 46.5942 26.8099L46.594 26.8101L46.5939 26.8103C45.6628 27.5378 44.4497 28.4857 43.7189 29.8661C43.2521 30.7479 42.6691 31.5688 42.0074 32.4346C41.8204 32.6793 41.6227 32.9329 41.4196 33.1935L41.4195 33.1937L41.4194 33.1938L41.4191 33.1941L41.4191 33.1941L41.4191 33.1942C40.9293 33.8226 40.4078 34.4918 39.9263 35.176C39.3602 35.9805 38.7895 36.6768 38.1876 37.4111L38.1875 37.4112L38.1874 37.4114C37.8188 37.861 37.4386 38.3249 37.0407 38.8366C36.9414 38.9641 36.8619 39.0591 36.7993 39.1292C36.6807 39.0719 36.5264 38.9914 36.3064 38.8749C35.6416 38.523 34.9316 38.342 34.4088 38.2087L34.4087 38.2087L34.4086 38.2087L34.4086 38.2087L34.3268 38.1878C33.7339 38.036 33.3542 37.928 33.0387 37.7527C32.733 37.5829 32.3427 37.4506 32.0219 37.3534C31.6687 37.2464 31.2692 37.1442 30.8777 37.0548C30.1265 36.8832 29.2682 36.728 28.7523 36.6993C27.3458 36.6212 25.9393 36.6986 24.5966 37.0822Z" fill="#637E3E"/>
</svg>
