<svg width="24" height="24" viewBox="0 0 24 24" fill="none" xmlns="http://www.w3.org/2000/svg">
<g clip-path="url(#clip0_1804_6136)">
<path d="M13.7367 10.3467C13.8448 9.36595 13.8268 8.50415 14.0559 7.71886C14.292 6.90583 14.9092 6.32532 15.8571 6.77486C17.2789 7.44916 18.6632 8.20537 20.055 8.93836C20.7201 9.28846 21.3792 9.65029 22.026 10.0311C23.0748 10.65 23.1217 11.8561 22.1989 12.6572C21.0229 13.6782 19.8766 14.7339 18.7474 15.8044C17.9554 16.5546 16.7606 16.3814 16.2674 15.4042C14.954 12.7929 14.9641 12.8698 12.1323 13.2279C10.2672 13.4654 8.36994 13.4748 6.48432 13.5199C5.01262 13.5543 3.53869 13.4932 2.06669 13.4594C0.937284 13.4372 0.676097 12.5829 0.689754 11.7488C0.703614 10.8214 1.44036 10.8007 2.23463 10.788C5.79938 10.7418 9.35898 10.623 12.9216 10.5154C13.2309 10.5063 13.5323 10.3884 13.7343 10.3446L13.7367 10.3467Z" fill="white"/>
</g>
<defs>
<clipPath id="clip0_1804_6136">
<rect width="24" height="24" fill="white"/>
</clipPath>
</defs>
</svg>
