<svg width="24" height="24" viewBox="0 0 24 24" fill="none" xmlns="http://www.w3.org/2000/svg">
<g clip-path="url(#clip0_1811_6145)">
<path d="M24.0004 13.1999C24.0004 19.1646 19.1651 23.9999 13.2004 23.9999C7.23571 23.9999 2.40039 19.1646 2.40039 13.1999C2.40039 7.23523 7.23571 2.3999 13.2004 2.3999C19.1651 2.3999 24.0004 7.23523 24.0004 13.1999Z" fill="#FFE719"/>
<path fill-rule="evenodd" clip-rule="evenodd" d="M10.8 21C16.4333 21 21 16.4333 21 10.8C21 5.1667 16.4333 0.6 10.8 0.6C5.1667 0.6 0.6 5.1667 0.6 10.8C0.6 16.4333 5.1667 21 10.8 21ZM10.8 21.6C16.7647 21.6 21.6 16.7647 21.6 10.8C21.6 4.83532 16.7647 0 10.8 0C4.83532 0 0 4.83532 0 10.8C0 16.7647 4.83532 21.6 10.8 21.6Z" fill="black"/>
</g>
<defs>
<clipPath id="clip0_1811_6145">
<rect width="24" height="24" fill="white"/>
</clipPath>
</defs>
</svg>
