<svg width="40" height="43" viewBox="0 0 40 43" fill="none" xmlns="http://www.w3.org/2000/svg">
<path fill-rule="evenodd" clip-rule="evenodd" d="M26.6166 40.1274C30.436 39.0757 34.4348 38.5452 38.3139 38.0592C39.1494 37.9573 39.9251 38.5259 39.9848 39.3269C40.1041 40.1286 39.507 40.8617 38.7312 40.9636C34.9714 41.4314 31.0927 41.9321 27.4523 42.9445C26.6765 43.1641 25.8406 42.7121 25.6019 41.9344C25.3632 41.1574 25.8407 40.3476 26.6166 40.1274Z" fill="#BF6A4D"/>
<path fill-rule="evenodd" clip-rule="evenodd" d="M15.0394 25.2172C21.1863 19.0624 28.109 13.6998 34.1365 7.37979C34.6736 6.78954 35.6285 6.75792 36.2253 7.30894C36.8221 7.86054 36.8815 8.78807 36.2847 9.37832C30.2572 15.7165 23.3345 21.0966 17.1876 27.2696C16.5908 27.8458 15.6362 27.854 15.0394 27.2872C14.5023 26.721 14.4426 25.7934 15.0394 25.2172Z" fill="#BF6A4D"/>
<path fill-rule="evenodd" clip-rule="evenodd" d="M3.52067 1.54341C3.34163 5.06616 3.16295 8.58891 2.98391 12.1123C2.98391 12.9192 2.26742 13.5422 1.43192 13.503C0.596425 13.4631 -9.64103e-06 12.7763 -9.64103e-06 11.9688C0.179026 8.44018 0.357711 4.91216 0.536747 1.38413C0.596425 0.577224 1.31268 -0.0417174 2.14818 0.00219987C2.924 0.0461172 3.58035 0.737085 3.52067 1.54341Z" fill="#BF6A4D"/>
</svg>
