<svg width="24" height="24" viewBox="0 0 24 24" fill="none" xmlns="http://www.w3.org/2000/svg">
<g clip-path="url(#clip0_1804_6142)">
<path d="M13.6533 13.7367C14.634 13.8448 15.4958 13.8268 16.2811 14.0559C17.0942 14.292 17.6747 14.9092 17.2251 15.8571C16.5508 17.2789 15.7946 18.6632 15.0616 20.055C14.7115 20.7201 14.3497 21.3792 13.9689 22.026C13.35 23.0748 12.1439 23.1217 11.3428 22.1989C10.3218 21.0229 9.26614 19.8766 8.19557 18.7474C7.44539 17.9554 7.61855 16.7606 8.59576 16.2674C11.2071 14.954 11.1302 14.9641 10.7721 12.1323C10.5346 10.2672 10.5252 8.36994 10.4801 6.48432C10.4457 5.01262 10.5068 3.53869 10.5406 2.06669C10.5628 0.937283 11.4171 0.676096 12.2512 0.689753C13.1786 0.703614 13.1993 1.44036 13.212 2.23463C13.2582 5.79938 13.377 9.35897 13.4846 12.9216C13.4937 13.2309 13.6116 13.5323 13.6554 13.7343L13.6533 13.7367Z" fill="white"/>
</g>
<defs>
<clipPath id="clip0_1804_6142">
<rect width="24" height="24" fill="white" transform="translate(24) rotate(90)"/>
</clipPath>
</defs>
</svg>
