<svg width="56" height="56" viewBox="0 0 56 56" fill="none" xmlns="http://www.w3.org/2000/svg">
<path fill-rule="evenodd" clip-rule="evenodd" d="M21.8249 15C22.6533 15 23.3249 15.6716 23.3249 16.5C23.3249 17.909 23.2484 19.2985 23.1219 20.6699C23.1955 20.6654 23.269 20.6609 23.3425 20.6566C25.3332 20.5398 27.3456 20.5123 29.1384 20.496L29.7791 20.4904H29.7791C31.2388 20.478 32.5028 20.4672 33.4915 20.4156C33.5656 19.2425 33.6075 18.0827 33.6075 16.9507C33.6075 16.1223 34.2791 15.4507 35.1075 15.4507C35.9359 15.4507 36.6075 16.1223 36.6075 16.9507C36.6075 17.998 36.5737 19.0634 36.5134 20.1362C37.4646 20.0187 38.4192 19.88 39.3901 19.7389C39.6727 19.6978 39.9567 19.6566 40.2424 19.6156C42.4632 19.2969 44.7687 18.9974 47.1419 18.9974C47.9703 18.9974 48.6419 19.669 48.6419 20.4974C48.6419 21.3259 47.9703 21.9974 47.1419 21.9974C45.002 21.9974 42.882 22.2675 40.6685 22.5852C40.3914 22.6249 40.1125 22.6655 39.8318 22.7063L39.8309 22.7065C38.6728 22.875 37.4853 23.0477 36.2774 23.1851C36.0474 25.5612 35.7208 27.9229 35.3739 30.1536C37.9359 29.8518 40.5261 29.6573 43.1444 29.6573C43.9728 29.6573 44.6444 30.3289 44.6444 31.1573C44.6444 31.9858 43.9728 32.6573 43.1444 32.6573C40.378 32.6573 37.6351 32.8858 34.8878 33.2355C34.625 34.9808 34.415 36.7057 34.415 38.327C34.415 39.1554 33.7435 39.827 32.915 39.827C32.0866 39.827 31.415 39.1554 31.415 38.327C31.415 36.8136 31.5785 35.2226 31.7925 33.6745C29.8949 33.9676 27.9904 34.299 26.0697 34.6338L25.9992 34.6461L25.9992 34.6461C24.3311 34.9368 22.6505 35.2297 20.9577 35.4985C20.7747 37.1482 20.6599 38.8032 20.6599 40.4846C20.6599 41.313 19.9883 41.9846 19.1599 41.9846C18.3315 41.9846 17.6599 41.313 17.6599 40.4846C17.6599 38.9489 17.7492 37.4385 17.8944 35.9511C14.8028 36.3683 11.671 36.6548 8.5 36.6548C7.67157 36.6548 7 35.9832 7 35.1548C7 34.3264 7.67157 33.6548 8.5 33.6548C11.7716 33.6548 15.0123 33.3337 18.2688 32.8704C18.4914 31.3045 18.7518 29.7636 19.0083 28.245L19.0134 28.2153C19.2516 26.8052 19.4864 25.4142 19.6899 24.0298C19.1744 24.1079 18.6781 24.1975 18.2064 24.3004C16.611 24.6483 15.456 25.1149 14.767 25.6662C14.1201 26.1837 13.1762 26.0788 12.6587 25.4319C12.1411 24.785 12.246 23.8411 12.8929 23.3236C14.1221 22.3402 15.8171 21.7509 17.5673 21.3693C18.3671 21.1948 19.2125 21.0569 20.081 20.9473C20.2324 19.4733 20.3249 17.996 20.3249 16.5C20.3249 15.6716 20.9964 15 21.8249 15ZM32.2708 30.5679C32.3178 30.2754 32.3636 29.9882 32.4073 29.7073C32.7248 27.6658 33.0199 25.5462 33.2379 23.4302C32.2484 23.4698 31.0661 23.4797 29.8057 23.4903L29.1657 23.4959C27.3755 23.5122 25.4281 23.5394 23.5183 23.6515C23.2665 23.6662 23.0162 23.6824 22.7677 23.7002C22.5367 25.3697 22.259 27.0134 21.9851 28.6342V28.6342L21.9851 28.6342L21.9714 28.7151C21.7626 29.9508 21.5565 31.1738 21.3716 32.3926C22.7593 32.1653 24.1524 31.9227 25.5546 31.6783L25.6057 31.6694C27.805 31.2861 30.0268 30.8989 32.2708 30.5679Z" fill="#444F7E"/>
</svg>
