<svg width="56" height="56" viewBox="0 0 56 56" fill="none" xmlns="http://www.w3.org/2000/svg">
<path d="M31.7482 17.1219C31.0199 16.4858 29.7404 16.2462 28.7909 16.285C27.0857 16.3548 24.83 16.7421 23.3806 17.6576C21.6154 18.7726 20.7921 22.2411 22.2359 23.9176C23.2479 25.0928 25.0076 26.281 26.6241 26.281C28.719 26.281 30.6417 25.8821 32.3887 24.6742C34.7775 23.0224 32.6574 19.6815 31.9935 17.7245" stroke="#826A46" stroke-width="3" stroke-linecap="round"/>
<path d="M27.715 47.3447C27.715 46.4764 29.2298 46.0783 29.6643 45.3397C30.0636 44.661 30.5618 43.7235 31.0288 43.1399C32.1466 41.7426 32.8101 40.1613 33.9248 38.768C34.4344 38.1309 34.6111 37.087 35.0387 36.3175C35.5691 35.3627 36.291 34.5646 36.793 33.5607C37.6588 31.829 37.8619 29.7318 38.8676 27.9217C39.6829 26.4541 40.246 23.7894 40.246 22.1575C40.246 21.2919 40.4966 20.3715 40.4966 19.4007C40.4966 18.3358 40.246 17.2664 40.246 16.2679C40.246 14.4822 38.4758 12.6957 36.9879 11.9517C35.1752 11.0454 33.2096 9.25062 31.0984 9.25062C30.1205 9.25062 29.359 9 28.3416 9C27.3065 9 26.3118 9.25062 25.3341 9.25062C24.5755 9.25062 22.7948 9.72848 22.0761 10.1278C20.8958 10.7835 19.1218 10.7192 18.1915 11.8821C16.9682 13.4113 15.8613 14.4109 15.4208 16.3933C14.8498 18.9625 14.8049 20.9143 15.6296 23.4802C17.1199 28.1166 18.4594 32.7223 20.4471 37.1946C21.3388 39.2009 22.5224 41.0555 23.5798 42.9589C24.2321 44.133 25.1923 45.0594 25.8354 46.2169C26.1195 46.7284 27.253 47.9908 26.9632 47.8459" stroke="#826A46" stroke-width="3" stroke-linecap="round"/>
</svg>
